Coordinates
version=1
nRows=17
nColumns=24
inDegrees=yes

Units are S.I. units (second, meters, Newtons, ...)
Angles are in degrees.

endheader
time	pelvis_tilt	pelvis_list	pelvis_rotation	pelvis_tx	pelvis_ty	pelvis_tz	hip_flexion_r	hip_adduction_r	hip_rotation_r	knee_angle_r	ankle_angle_r	subtalar_angle_r	mtp_angle_r	hip_flexion_l	hip_adduction_l	hip_rotation_l	knee_angle_l	ankle_angle_l	subtalar_angle_l	mtp_angle_l	lumbar_extension	lumbar_bending	lumbar_rotation
      1.28500000	     -9.06282455	     -3.19779412	      0.41058383	     -0.59968994	      1.22126936	     -0.83544374	     -3.43941241	     11.62669260	      8.00292577	    -10.84672158	      8.16023674	     -1.72070543	     12.08758646	     32.93197375	      4.03956953	      5.47126374	     -8.00863145	      0.19367884	     -3.86476414	      9.82129728	     -4.57119941	      4.48072895	      7.10154812
      1.29000000	     -9.06534953	     -3.20546372	      0.32013524	     -0.59372077	      1.22071261	     -0.83544446	     -3.64246114	     11.62557295	      8.07996681	    -11.33398966	      8.16981608	     -1.46460049	     12.32881397	     32.93103279	      4.10445672	      5.42481317	     -8.43845752	     -0.27823388	     -3.82364970	      9.80836554	     -4.51864485	      4.43404443	      7.09677292
      1.29500000	     -9.06358539	     -3.22551750	      0.26749552	     -0.58777306	      1.22017523	     -0.83557230	     -3.78049674	     11.62300935	      8.02533366	    -11.92325071	      8.30211323	     -0.98424693	     12.97357861	     32.94045565	      4.19381654	      5.56256903	     -8.94958926	     -0.89990334	     -3.96471564	      9.85208300	     -4.47938900	      4.41713132	      7.07190027
      1.30000000	     -9.03134555	     -3.21378685	      0.23637414	     -0.58175694	      1.21972397	     -0.83566824	     -3.93250056	     11.59007178	      7.93779670	    -12.54123432	      8.31714531	     -0.59477795	     13.62626705	     32.94166237	      4.32375754	      5.69618171	     -9.56757949	     -1.61600421	     -4.19237001	      9.91175627	     -4.46278064	      4.34547343	      7.01865850
      1.30500000	     -8.99901516	     -3.18409333	      0.21367346	     -0.57571607	      1.21933035	     -0.83575735	     -4.02505204	     11.53850336	      7.80188265	    -13.25678366	      8.31795177	     -0.15255472	     14.29545450	     32.96602083	      4.47336181	      5.85116503	    -10.27223224	     -2.39375898	     -4.45220365	      9.95535881	     -4.44429582	      4.24519486	      6.96918009
      1.31000000	     -8.94314453	     -3.13553964	      0.22034308	     -0.56964035	      1.21900945	     -0.83587641	     -4.08877846	     11.46236782	      7.56769295	    -14.05541779	      8.30870672	      0.37135510	     15.07960707	     32.98187723	      4.65723582	      6.05999554	    -11.04696845	     -3.22886844	     -4.78778914	      9.97723949	     -4.44680192	      4.11757693	      6.89442953
      1.31500000	     -8.86935934	     -3.06741809	      0.24742147	     -0.56352688	      1.21876402	     -0.83601388	     -4.11052483	     11.36085704	      7.24994459	    -14.95001296	      8.25910498	      0.94130635	     15.95127985	     33.00061490	      4.86907683	      6.27941503	    -11.89653084	     -4.07970876	     -5.15553676	      9.98040770	     -4.46798542	      3.96375771	      6.80940210
      1.32000000	     -8.77934905	     -2.98099882	      0.29172667	     -0.55738620	      1.21860621	     -0.83615314	     -4.08007539	     11.23511227	      6.84681948	    -15.94974178	      8.17871788	      1.56951204	     16.92413682	     33.01093678	      5.10202722	      6.52401257	    -12.79225109	     -4.92697125	     -5.53098404	      9.96186141	     -4.50685766	      3.77952024	      6.71313216
      1.32500000	     -8.61802045	     -2.86702072	      0.35869565	     -0.55119102	      1.21859414	     -0.83629200	     -4.08542242	     11.07262598	      6.37637360	    -17.00204640	      8.04377731	      2.17608139	     18.16953136	     32.92929146	      5.36702305	      6.77333310	    -13.69498335	     -5.76975426	     -6.00383189	      9.96108862	     -4.61100654	      3.55491206	      6.61819212
      1.33000000	     -8.52294453	     -2.75413240	      0.44192041	     -0.54497961	      1.21855496	     -0.83650218	     -3.90552785	     10.89612227	      5.77434355	    -18.23991382	      7.87177294	      2.93088855	     19.21119378	     32.96948300	      5.64443220	      7.03321994	    -14.71601687	     -6.46716956	     -6.28839812	      9.88139026	     -4.64950988	      3.34678481	      6.51594950
      1.33500000	     -8.40454431	     -2.62098298	      0.55081274	     -0.53870766	      1.21862584	     -0.83669393	     -3.67764554	     10.68527517	      5.07997096	    -19.58664451	      7.58486631	      3.74189437	     20.38219734	     32.93904009	      5.94325849	      7.31866218	    -15.67817616	     -7.13066812	     -6.54297271	      9.76788925	     -4.70443780	      3.09611576	      6.36462583
      1.34000000	     -8.21282688	     -2.45795602	      0.66999311	     -0.53240028	      1.21882880	     -0.83691518	     -3.47447843	     10.41814944	      4.30395072	    -21.00398131	      7.30676858	      4.52149600	     21.89860052	     32.81790425	      6.27961380	      7.56933885	    -16.65612772	     -7.70321802	     -6.93946101	      9.62657186	     -4.83216377	      2.81616639	      6.28072646
      1.34500000	     -8.03686157	     -2.27961807	      0.78638226	     -0.52605032	      1.21910352	     -0.83710033	     -3.16331214	     10.11932567	      3.50579279	    -22.56166192	      6.84883331	      5.30290051	     23.39604543	     32.65759128	      6.61652367	      7.83094489	    -17.55472616	     -8.17507485	     -7.19923312	      9.49528895	     -4.94246663	      2.51294373	      6.14048653
      1.35000000	     -7.86374700	     -2.09450491	      0.93997504	     -0.51968351	      1.21941109	     -0.83735744	     -2.77213308	      9.78102533	      2.60051840	    -24.22926508	      6.30219056	      6.13135794	     24.83294154	     32.48775483	      6.98546620	      8.12262211	    -18.45206758	     -8.52055039	     -7.41096389	      9.35665581	     -5.04608919	      2.21043183	      6.01037673
      1.35500000	     -7.69088364	     -1.88985732	      1.10549196	     -0.51329506	      1.21976734	     -0.83763175	     -2.30572384	      9.38958277	      1.64774376	    -26.00327586	      5.62785567	      6.95784789	     26.25469722	     32.27356710	      7.37819648	      8.41653936	    -19.29052373	     -8.75306947	     -7.59808902	      9.22464141	     -5.14637380	      1.88677079	      5.86737384
      1.36000000	     -7.51558677	     -1.66521005	      1.28496457	     -0.50690247	      1.22015705	     -0.83793473	     -1.77282595	      8.94150066	      0.65848215	    -27.86867597	      4.81252503	      7.75033803	     27.66604766	     32.00647217	      7.79713028	      8.72210875	    -20.05498881	     -8.89855723	     -7.77215554	      9.09892569	     -5.24640508	      1.54997846	      5.72913254
      1.36500000	     -7.34361687	     -1.42404881	      1.48499009	     -0.50051673	      1.22058268	     -0.83826532	     -1.18260517	      8.44093738	     -0.35257516	    -29.79132902	      3.83265767	      8.45604577	     29.03797163	     31.69247195	      8.24213908	      9.05009851	    -20.74434168	     -8.98173143	     -7.93206461	      8.98577777	     -5.34243295	      1.19708438	      5.59598154
